<?xml version="1.0" standalone="no"?>
<!DOCTYPE svg PUBLIC "-//W3C//DTD SVG 20010904//EN"
 "http://www.w3.org/TR/2001/REC-SVG-20010904/DTD/svg10.dtd">
<svg version="1.0" xmlns="http://www.w3.org/2000/svg"
 width="72.000000pt" height="72.000000pt" viewBox="0 0 72.000000 72.000000"
 preserveAspectRatio="xMidYMid meet">

<g transform="translate(0.000000,72.000000) scale(0.100000,-0.100000)"
fill="#000000" stroke="none">
<path d="M295 706 c-41 -18 -83 -69 -90 -110 -4 -19 -5 -86 -3 -149 3 -125 11
-146 72 -191 39 -29 133 -29 172 0 64 48 69 62 69 219 0 156 -5 172 -67 218
-33 25 -113 32 -153 13z m126 -31 c32 -17 69 -69 69 -97 0 -15 -9 -18 -45 -18
-33 0 -45 -4 -45 -15 0 -11 12 -15 45 -15 33 0 45 -4 45 -15 0 -11 -12 -15
-45 -15 -57 0 -59 -18 -3 -22 57 -4 62 -26 7 -30 -60 -4 -64 -28 -5 -28 45 0
46 -1 46 -32 0 -43 -31 -93 -69 -113 -86 -44 -191 19 -191 115 0 29 1 30 46
30 59 0 55 24 -5 28 -55 4 -50 26 7 30 56 4 54 22 -3 22 -33 0 -45 4 -45 15 0
11 12 15 45 15 33 0 45 4 45 15 0 11 -12 15 -45 15 -51 0 -56 10 -30 61 32 61
113 86 176 54z"/>
<path d="M130 413 c1 -110 48 -190 136 -230 53 -24 54 -25 54 -69 l0 -44 -58
0 c-62 0 -92 -18 -92 -53 0 -15 19 -17 184 -17 118 0 187 4 191 10 4 6 -1 22
-9 35 -14 22 -24 25 -76 25 l-60 0 0 44 c0 44 1 45 54 69 87 40 135 120 136
230 0 42 -4 57 -14 57 -10 0 -15 -20 -17 -79 -4 -71 -7 -83 -35 -117 -55 -69
-76 -79 -164 -79 -87 0 -109 10 -164 78 -26 32 -31 48 -36 114 -3 48 -10 78
-17 81 -10 3 -13 -12 -13 -55z m240 -298 c0 -25 -4 -45 -10 -45 -5 0 -10 20
-10 45 0 25 5 45 10 45 6 0 10 -20 10 -45z m68 -82 c-43 -2 -113 -2 -155 0
-43 1 -8 3 77 3 85 0 120 -2 78 -3z"/>
</g>
</svg>
